<?xml version="1.0" standalone="no"?>
<!DOCTYPE svg PUBLIC "-//W3C//DTD SVG 20010904//EN"
 "http://www.w3.org/TR/2001/REC-SVG-20010904/DTD/svg10.dtd">
<svg version="1.0" xmlns="http://www.w3.org/2000/svg"
 width="500.000000pt" height="500.000000pt" viewBox="0 0 500.000000 500.000000"
 preserveAspectRatio="xMidYMid meet">

<g transform="translate(0.000000,500.000000) scale(0.100000,-0.100000)"
fill="#000000" stroke="none">
<path d="M2145 3398 c-33 -18 -76 -61 -92 -92 -11 -22 -13 -44 -8 -89 8 -73 4
-77 -88 -77 -60 0 -68 -2 -65 -17 5 -28 98 -30 152 -4 23 12 48 21 54 21 8 0
9 7 2 26 -6 14 -10 43 -10 65 0 48 35 89 75 89 15 0 35 5 46 10 11 6 25 7 32
3 6 -4 28 -13 47 -18 28 -9 37 -18 48 -50 7 -22 11 -50 9 -62 -6 -34 2 -28 19
13 9 21 13 48 9 62 -9 35 -51 88 -90 112 -36 22 -107 26 -140 8z"/>
<path d="M2158 3253 c7 -3 16 -2 19 1 4 3 -2 6 -13 5 -11 0 -14 -3 -6 -6z"/>
<path d="M2110 3025 c0 -15 6 -25 14 -25 22 0 30 19 16 35 -18 22 -30 18 -30
-10z"/>
<path d="M2282 3013 c4 -21 33 -25 33 -3 0 8 -8 16 -18 18 -14 3 -18 -1 -15
-15z"/>
<path d="M2220 2960 c0 -5 5 -10 10 -10 6 0 10 5 10 10 0 6 -4 10 -10 10 -5 0
-10 -4 -10 -10z"/>
<path d="M2330 2926 c0 -10 9 -16 21 -16 24 0 21 23 -4 28 -10 2 -17 -3 -17
-12z"/>
<path d="M2032 2903 c2 -10 10 -18 18 -18 22 0 18 29 -3 33 -14 3 -18 -1 -15
-15z"/>
<path d="M2196 2823 c-13 -14 -5 -33 14 -33 11 0 20 6 20 14 0 15 -24 28 -34
19z"/>
<path d="M2330 2806 c0 -15 24 -28 34 -19 13 14 5 33 -14 33 -11 0 -20 -6 -20
-14z"/>
<path d="M2283 2687 c-24 -7 -33 -16 -33 -32 0 -12 -3 -50 -6 -84 -6 -52 -5
-61 10 -61 9 0 16 8 16 19 0 10 11 49 25 86 14 37 24 71 23 74 -2 4 -18 3 -35
-2z"/>
<path d="M2120 2682 c0 -5 11 -41 25 -81 13 -41 22 -77 19 -82 -3 -5 2 -9 10
-9 13 0 16 13 16 73 0 39 -4 77 -8 83 -9 14 -62 27 -62 16z"/>
<path d="M2149 1758 c-6 -13 -8 -20 -4 -16 5 4 15 2 24 -5 14 -10 14 -10 3 5
-8 9 -11 22 -7 28 3 5 4 10 1 10 -3 0 -11 -10 -17 -22z"/>
<path d="M2805 1770 c-8 -13 3 -30 18 -30 8 0 7 3 -2 9 -7 5 -10 14 -7 20 4 6
5 11 2 11 -3 0 -8 -4 -11 -10z"/>
<path d="M2288 1705 c3 -19 -1 -27 -19 -34 -14 -6 -18 -10 -8 -10 30 -2 54 48
30 63 -4 3 -6 -6 -3 -19z"/>
<path d="M2757 1691 c-4 -17 -3 -21 5 -13 5 5 8 16 6 23 -3 8 -7 3 -11 -10z"/>
<path d="M2560 1674 c-11 -13 -10 -19 10 -37 l24 -22 -18 22 c-15 19 -16 25
-6 38 7 8 10 15 7 15 -2 0 -10 -7 -17 -16z"/>
<path d="M2350 1655 c0 -9 6 -12 15 -9 8 4 15 7 15 9 0 2 -7 5 -15 9 -9 3 -15
0 -15 -9z"/>
<path d="M2531 1634 c0 -11 3 -14 6 -6 3 7 2 16 -1 19 -3 4 -6 -2 -5 -13z"/>
</g>
</svg>
